<?xml version="1.0" encoding="iso-8859-1"?>
<!-- Generator: Adobe Illustrator 19.0.0, SVG Export Plug-In . SVG Version: 6.00 Build 0)  -->
<svg version="1.1" id="Capa_1" xmlns="http://www.w3.org/2000/svg" xmlns:xlink="http://www.w3.org/1999/xlink" x="0px" y="0px"
	 viewBox="0 0 468.293 468.293" style="enable-background:new 0 0 468.293 468.293;" xml:space="preserve">
<path style="fill:#44C4A1;" d="M468.293,99.902H0V43.707c0-10.345,8.386-18.732,18.732-18.732h430.829
	c10.345,0,18.732,8.386,18.732,18.732V99.902z"/>
<path style="fill:#E1E6E9;" d="M449.561,443.317H18.732C8.386,443.317,0,434.931,0,424.585V99.902h468.293v324.683
	C468.293,434.931,459.906,443.317,449.561,443.317z"/>
<circle style="fill:#FCD462;" cx="57.987" cy="62.439" r="18.732"/>
<circle style="fill:#27A2DB;" cx="120.426" cy="62.439" r="18.732"/>
<rect x="179.262" y="51.031" style="fill:#EBF0F3;" width="249.756" height="24.976"/>
<g>
	<path style="fill:#64798A;" d="M357.293,191.235H111c-13.976,0-25.348,11.372-25.348,25.348v111.709h14.911V216.584
		c0-5.755,4.683-10.438,10.438-10.438h246.293c5.755,0,10.438,4.683,10.438,10.438v111.709h14.911V216.584
		C382.641,202.608,371.269,191.235,357.293,191.235z"/>
	<rect x="226.691" y="246.403" style="fill:#64798A;" width="14.91" height="62.339"/>
</g>
<path style="fill:#E56353;" d="M311.403,246.405H156.89c-3.448,0-6.244-2.796-6.244-6.244V157.22c0-3.448,2.796-6.244,6.244-6.244
	h154.513c3.448,0,6.244,2.795,6.244,6.244v82.941C317.647,243.609,314.851,246.405,311.403,246.405z"/>
<path style="fill:#27A2DB;" d="M143.059,392.244H43.156c-3.448,0-6.244-2.796-6.244-6.244v-71.013c0-3.448,2.795-6.244,6.244-6.244
	h99.902c3.448,0,6.244,2.796,6.244,6.244V386C149.303,389.448,146.507,392.244,143.059,392.244z"/>
<path style="fill:#44C4A1;" d="M284.098,392.244h-99.902c-3.448,0-6.244-2.796-6.244-6.244v-71.013c0-3.448,2.795-6.244,6.244-6.244
	h99.902c3.448,0,6.244,2.796,6.244,6.244V386C290.341,389.448,287.546,392.244,284.098,392.244z"/>
<path style="fill:#FCD462;" d="M425.136,392.244h-99.902c-3.448,0-6.244-2.796-6.244-6.244v-71.013c0-3.448,2.796-6.244,6.244-6.244
	h99.902c3.448,0,6.244,2.796,6.244,6.244V386C431.38,389.448,428.585,392.244,425.136,392.244z"/>
<g>
</g>
<g>
</g>
<g>
</g>
<g>
</g>
<g>
</g>
<g>
</g>
<g>
</g>
<g>
</g>
<g>
</g>
<g>
</g>
<g>
</g>
<g>
</g>
<g>
</g>
<g>
</g>
<g>
</g>
</svg>
