<?xml version="1.0" encoding="iso-8859-1"?>
<!-- Generator: Adobe Illustrator 19.0.0, SVG Export Plug-In . SVG Version: 6.00 Build 0)  -->
<svg version="1.1" id="Capa_1" xmlns="http://www.w3.org/2000/svg" xmlns:xlink="http://www.w3.org/1999/xlink" x="0px" y="0px"
	 viewBox="0 0 468.305 468.305" style="enable-background:new 0 0 468.305 468.305;" xml:space="preserve">
<rect x="27.548" y="27.554" style="fill:#EBF0F3;" width="413.221" height="413.221"/>
<path style="fill:#D5D6DB;" d="M19.283,19.289v429.727H449.01V19.289H19.283z M432.482,101.929H366.37V35.817h66.112V101.929z
	 M201.09,267.209v-66.112h66.112v66.112H201.09z M267.202,283.737v66.112H201.09v-66.112H267.202z M184.562,267.209h-66.112v-66.112
	h66.112V267.209z M201.09,184.569v-66.112h66.112v66.112H201.09z M283.73,201.097h66.112v66.112H283.73V201.097z M283.73,184.569
	v-66.112h66.112v66.112H283.73z M283.73,101.929V35.817h66.112v66.112H283.73z M267.202,101.929H201.09V35.817h66.112V101.929z
	 M184.562,101.929h-66.112V35.817h66.112V101.929z M184.562,118.457v66.112h-66.112v-66.112H184.562z M101.923,184.569H35.811
	v-66.112h66.112V184.569z M101.923,201.097v66.112H35.811v-66.112H101.923z M101.923,283.737v66.112H35.811v-66.112H101.923z
	 M118.451,283.737h66.112v66.112h-66.112V283.737z M184.562,366.376v66.112h-66.112v-66.112H184.562z M201.09,366.376h66.112v66.112
	H201.09V366.376z M283.73,366.376h66.112v66.112H283.73V366.376z M283.73,349.848v-66.112h66.112v66.112H283.73z M366.37,283.737
	h66.112v66.112H366.37V283.737z M366.37,267.209v-66.112h66.112v66.112H366.37z M366.37,184.569v-66.112h66.112v66.112H366.37z
	 M101.923,35.817v66.112H35.811V35.817H101.923z M35.811,366.376h66.112v66.112H35.811V366.376z M366.37,432.488v-66.112h66.112
	v66.112H366.37z"/>
<polygon style="fill:#64798A;" points="194.282,97.72 21.691,270.925 33.398,282.59 194.164,121.253 351.718,282.533 
	363.543,270.982 "/>
<circle style="fill:#44C4A1;" cx="194.223" cy="109.462" r="27.548"/>
<circle style="fill:#27A2DB;" cx="27.548" cy="276.755" r="27.548"/>
<rect x="340.471" y="226.986" transform="matrix(-0.7076 0.7066 -0.7066 -0.7076 847.9028 119.6409)" style="fill:#64798A;" width="117.454" height="16.528"/>
<circle style="fill:#E56353;" cx="357.632" cy="276.755" r="27.548"/>
<circle style="fill:#27A2DB;" cx="440.757" cy="193.761" r="27.548"/>
<g>
</g>
<g>
</g>
<g>
</g>
<g>
</g>
<g>
</g>
<g>
</g>
<g>
</g>
<g>
</g>
<g>
</g>
<g>
</g>
<g>
</g>
<g>
</g>
<g>
</g>
<g>
</g>
<g>
</g>
</svg>
