<?xml version="1.0" encoding="iso-8859-1"?>
<!-- Generator: Adobe Illustrator 19.0.0, SVG Export Plug-In . SVG Version: 6.00 Build 0)  -->
<svg version="1.1" id="Capa_1" xmlns="http://www.w3.org/2000/svg" xmlns:xlink="http://www.w3.org/1999/xlink" x="0px" y="0px"
	 viewBox="0 0 468.293 468.293" style="enable-background:new 0 0 468.293 468.293;" xml:space="preserve">
<path style="fill:#EBF0F3;" d="M405.854,12.488v443.317c0,6.868-5.62,12.488-12.488,12.488H74.927
	c-6.868,0-12.488-5.62-12.488-12.488V84.293L146.732,0h246.634C400.234,0,405.854,5.62,405.854,12.488z"/>
<polygon style="fill:#E1E6E9;" points="146.732,0 146.732,84.293 62.439,84.293 "/>
<path style="fill:#1C75A1;" d="M322.81,379.005l-86.79,28.098c-1.249,0.624-2.498,0.624-3.746,0l-86.79-28.098
	c-2.498-0.624-3.746-2.498-3.746-4.995l-23.102-222.283c-0.624-3.122,2.498-6.244,5.62-6.244h219.161
	c3.746,0,6.244,3.122,5.62,6.244L325.932,374.01C326.556,376.507,324.683,378.38,322.81,379.005z"/>
<path style="fill:#27A2DB;" d="M157.971,360.898L137.99,169.21c-0.624-3.122,2.498-6.244,5.62-6.244h181.073
	c3.746,0,6.244,3.122,5.62,6.244l-19.98,191.688c0,2.498-1.873,4.371-3.746,4.995l-70.556,22.478c-1.249,0.624-2.498,0.624-3.746,0
	l-70.556-22.478C159.844,365.268,157.971,363.395,157.971,360.898z"/>
<polygon style="fill:#EBF0F3;" points="236.644,351.532 231.649,351.532 173.58,322.185 173.58,297.834 196.683,297.834 
	196.683,307.824 234.146,326.556 271.61,307.824 271.61,279.102 176.078,279.102 176.078,200.429 290.966,200.429 290.966,223.532 
	199.18,223.532 199.18,255.376 294.712,255.376 294.712,322.185 "/>
<g>
</g>
<g>
</g>
<g>
</g>
<g>
</g>
<g>
</g>
<g>
</g>
<g>
</g>
<g>
</g>
<g>
</g>
<g>
</g>
<g>
</g>
<g>
</g>
<g>
</g>
<g>
</g>
<g>
</g>
</svg>
